{"accessors":[{"bufferView":2,"componentType":5126,"count":21315,"max":[199.49609375,83.87431335449219,148.2491912841797],"min":[-50.66355514526367,-119.31243896484375,-74.50000762939453],"type":"VEC3"},{"bufferView":2,"byteOffset":255780,"componentType":5126,"count":21315,"max":[1,1,1],"min":[-1,-1,-1],"type":"VEC3"},{"bufferView":1,"componentType":5126,"count":21315,"max":[1,1],"min":[1.7219893067021985e-8,0],"type":"VEC2"},{"bufferView":0,"componentType":5125,"count":126480,"type":"SCALAR"},{"bufferView":2,"byteOffset":511560,"componentType":5126,"count":2353,"max":[75.76420593261719,38.171756744384766,144.15399169921875],"min":[17.83951187133789,1.107382893562317,-70.3414306640625],"type":"VEC3"},{"bufferView":2,"byteOffset":539796,"componentType":5126,"count":2353,"max":[0.9546746015548706,0.9990102052688599,0.9999374151229858],"min":[-0.8915062546730042,-0.9928187131881714,-0.9999373555183411],"type":"VEC3"},{"bufferView":1,"byteOffset":170520,"componentType":5126,"count":2353,"max":[0.49688079953193665,0.9987080097198486],"min":[0.14956577122211456,0.8548452258110046],"type":"VEC2"},{"bufferView":0,"byteOffset":505920,"componentType":5125,"count":7680,"type":"SCALAR"}],"asset":{"extras":{"author":"hemantcbr (https://sketchfab.com/hemantcbr)","license":"CC-BY-4.0 (http://creativecommons.org/licenses/by/4.0/)","source":"https://sketchfab.com/3d-models/faucet-nicola-be408bdd24ac49c6baa907a80d2d6777","title":"faucet nicola"},"generator":"PARISI Vision prototype — prepared for Hermitage Kitchen Twinner AR","version":"2.0"},"bufferViews":[{"buffer":0,"byteLength":536640,"name":"floatBufferViews","target":34963},{"buffer":0,"byteLength":189344,"byteOffset":536640,"byteStride":8,"name":"floatBufferViews","target":34962},{"buffer":0,"byteLength":568032,"byteOffset":725984,"byteStride":12,"name":"floatBufferViews","target":34962}],"buffers":[{"byteLength":1294016,"uri":"data:application/octet-stream;base64,"}],"materials":[{"doubleSided":true,"name":"Polished chrome","pbrMetallicRoughness":{"baseColorFactor":[0.78,0.8,0.82,1],"roughnessFactor":0.13,"metallicFactor":1}},{"doubleSided":true,"name":"Warm ceramic detail","pbrMetallicRoughness":{"baseColorFactor":[0.94,0.93,0.89,1],"metallicFactor":0,"roughnessFactor":0.22}}],"meshes":[{"name":"Nicolazzi-Dames_Anglaises005_midnight chrome_0","primitives":[{"attributes":{"NORMAL":1,"POSITION":0,"TEXCOORD_0":2},"indices":3,"material":0,"mode":4}]},{"name":"Nicolazzi-Dames_Anglaises005_05 - VRay Material_0","primitives":[{"attributes":{"NORMAL":5,"POSITION":4,"TEXCOORD_0":6},"indices":7,"material":1,"mode":4}]}],"nodes":[{"children":[1],"matrix":[1,0,0,0,0,2.220446049250313e-16,-1,0,0,1,2.220446049250313e-16,0,0,0,0,1],"name":"Sketchfab_model"},{"children":[2],"matrix":[0.0010000000474974513,0,0,0,0,0,0.0010000000474974513,0,0,-0.0010000000474974513,0,0,0,0,0,1],"name":"7e8265ed9fce44859afe97ebd5c3a5e1.fbx"},{"children":[3],"name":"RootNode"},{"children":[4],"matrix":[0.3269178066368075,0.9238795305134753,-0.1989255157137458,0,-0.7892493681879289,0.3826834371882333,0.4802487081885328,0,0.5198174511487028,-1.672762359183899e-8,0.8542773656613323,0,-33.7843017578125,102.57571411132812,50.48291015625,1],"name":"Nicolazzi-Dames_Anglaises005"},{"children":[5,6],"matrix":[1,0,0,0,0,1,0,0,0,0,1,0,-74.416259765625,17.71906089782715,-36.874568939208984,1],"name":"Object_4"},{"mesh":0,"name":"Nicolazzi-Dames_Anglaises005_midnight chrome_0"},{"mesh":1,"name":"Nicolazzi-Dames_Anglaises005_05 - VRay Material_0"},{"name":"PARISI_AR_FRONT_ORIENTATION","rotation":[0,0.9914448613738104,0,0.1305261922200517],"children":[0]}],"scene":0,"scenes":[{"name":"Sketchfab_Scene","nodes":[7]}]}
