{"asset":{"version":"2.0","generator":"PARISI Vision compact prototype generator — brushed-brass"},"scene":0,"scenes":[{"nodes":[0,1,2,3,4,5,6,7,8,9,10,11,12,13,14,15,16,17,18]}],"nodes":[{"name":"Deck plate","mesh":0,"translation":[0,0.006,0],"rotation":[0,0,0,1],"scale":[0.038,0.012,0.038]},{"name":"Mixer body","mesh":0,"translation":[0,0.127,0],"rotation":[0,0,0,1],"scale":[0.028,0.22999999999999998,0.028]},{"name":"Body collar","mesh":0,"translation":[0,0.232,0],"rotation":[0,0,0,1],"scale":[0.032,0.013000000000000012,0.032]},{"name":"Arc 1","mesh":0,"translation":[-0.0026202103681442525,0.2516622839969947,0],"rotation":[0,0,0.04896016396170974,0.9988007320506141],"scale":[0.0185,0.053581447920328935,0.0185]},{"name":"Arc 2","mesh":0,"translation":[-0.012424868519909841,0.29971262208865507,0],"rotation":[0,0,0.16132549785892164,0.9869012532875673],"scale":[0.0185,0.045124944228748944,0.0185]},{"name":"Arc 3","mesh":0,"translation":[-0.030343726521412463,0.33727084898572496,0],"rotation":[0,0,0.2888463654593379,0.957375463003377],"scale":[0.0185,0.038817627500163786,0.0185]},{"name":"Arc 4","mesh":0,"translation":[-0.054348234410217876,0.3644496619083396,0],"rotation":[0,0,0.4251593090835962,0.9051185347232478],"scale":[0.0185,0.03448394696041458,0.0185]},{"name":"Arc 5","mesh":0,"translation":[-0.0824098422238918,0.3813617580766341,0],"rotation":[0,0,0.5609461324751133,0.8278523035307763],"scale":[0.0185,0.03185213120748633,0.0185]},{"name":"Arc 6","mesh":0,"translation":[-0.11249999999999998,0.3881198347107438,0],"rotation":[0,0,0.687104237707841,0.7265588527599997],"scale":[0.0185,0.030644999315106575,0.0185]},{"name":"Arc 7","mesh":0,"translation":[-0.14259015777610817,0.3848365890308039,0],"rotation":[0,0,0.7966815927813219,0.604399238685338],"scale":[0.0185,0.030718770127600208,0.0185]},{"name":"Arc 8","mesh":0,"translation":[-0.17065176558978212,0.37162471825694965,0],"rotation":[0,0,0.8844346592401816,0.4666640478274536],"scale":[0.0185,0.03215170602036862,0.0185]},{"name":"Arc 9","mesh":0,"translation":[-0.19465627347858755,0.3485969196093163,0],"rotation":[0,0,0.9467323163720968,0.3220216159463896],"scale":[0.0185,0.03520999480943581,0.0185]},{"name":"Arc 10","mesh":0,"translation":[-0.21257513148009016,0.3158658903080391,0],"rotation":[0,0,0.9833540133194968,0.18169998483334757],"scale":[0.0185,0.04020949391708782,0.0185]},{"name":"Arc 11","mesh":0,"translation":[-0.22237978963185573,0.2735443275732532,0],"rotation":[0,0,0.9984649170366929,0.05538780955147015],"scale":[0.0185,0.04737935682340914,0.0185]},{"name":"Nozzle","mesh":0,"translation":[-0.225,0.224,0],"rotation":[1,0,0,0],"scale":[0.023,0.05199999999999999,0.023]},{"name":"Aerator","mesh":1,"translation":[-0.225,0.196,0],"rotation":[1,0,0,0],"scale":[0.0195,0.0040000000000000036,0.0195]},{"name":"Valve body","mesh":0,"translation":[0.0615,0.13,0],"rotation":[0,0,-0.7071067811865475,0.7071067811865475],"scale":[0.029,0.093,0.029]},{"name":"Lever","mesh":0,"translation":[0.1085,0.20750000000000002,0.002],"rotation":[0.01597510684955848,0,-0.02795643698672736,0.9994814823658078],"scale":[0.006,0.12525973016097394,0.006]},{"name":"Lever joint","mesh":0,"translation":[0.105,0.143,0],"rotation":[0,0,0,1],"scale":[0.009,0.014000000000000012,0.009]}],"meshes":[{"primitives":[{"attributes":{"POSITION":0,"NORMAL":1},"indices":2,"material":0}]},{"primitives":[{"attributes":{"POSITION":0,"NORMAL":1},"indices":2,"material":1}]}],"materials":[{"name":"Selectable finish","pbrMetallicRoughness":{"baseColorFactor":[0.56,0.36,0.14,1],"metallicFactor":1,"roughnessFactor":0.24}},{"name":"Aerator detail","pbrMetallicRoughness":{"baseColorFactor":[0.08,0.08,0.075,1],"metallicFactor":0.5,"roughnessFactor":0.5}}],"accessors":[{"bufferView":0,"componentType":5126,"count":50,"type":"VEC3","min":[-1,-0.5,-1],"max":[1,0.5,1]},{"bufferView":1,"componentType":5126,"count":50,"type":"VEC3"},{"bufferView":2,"componentType":5123,"count":144,"type":"SCALAR"}],"bufferViews":[{"buffer":0,"byteOffset":0,"byteLength":600,"target":34962},{"buffer":0,"byteOffset":600,"byteLength":600,"target":34962},{"buffer":0,"byteOffset":1200,"byteLength":288,"target":34963}],"buffers":[{"byteLength":1488,"uri":"data:application/octet-stream;base64,"}]}
